<?xml version="1.0" encoding="utf-8"?>
<!-- Generator: Adobe Illustrator 25.0.0, SVG Export Plug-In . SVG Version: 6.00 Build 0)  -->
<svg version="1.1" id="Layer_1" xmlns="http://www.w3.org/2000/svg" xmlns:xlink="http://www.w3.org/1999/xlink" x="0px" y="0px"
	 viewBox="0 0 152 48" style="enable-background:new 0 0 152 48;" xml:space="preserve">
<style type="text/css">
	.st0{fill:#1E1E1E;}
</style>
<g>
	<g>
		<path class="st0" d="M22.19,37.38c-0.37-0.26-0.82-0.49-1.22-0.7c-0.51-0.31-0.71-0.74-0.68-1.32c0.04-0.36,0.07-0.76,0.15-1.17
			l0.93-8.39c0.03-0.4,0.09-0.85,0.07-1.28c-0.08-0.68-0.52-1.05-1.24-0.96c-0.73,0.05-1.25,0.4-1.51,1.12
			c-0.18,0.35-0.25,0.76-0.38,1.1c-0.48,1.43-1.21,2.7-2.31,3.71c-1.43,1.27-3.05,1.76-4.94,1.36c-1.98-0.42-3.58-1.42-4.81-3.04
			c-1.27-1.6-1.96-3.48-2.24-5.51C3.48,17.85,4.37,13.7,6.54,9.8c0.82-1.43,1.87-2.65,3.2-3.63c0.88-0.66,1.9-1.13,2.97-1.39
			c2.98-0.65,5.6,0.75,6.72,3.52c0.48,1.23,0.57,2.48,0.5,3.76c-0.22,4.55-2.35,7.95-6.45,10.06c-0.77,0.41-1.58,0.65-2.44,0.91
			c-0.25,0.06-0.52,0.17-0.76,0.28c-0.19,0.09-0.28,0.29-0.23,0.49c0.01,0.22,0.17,0.35,0.4,0.38c0.34,0.13,0.71,0.04,1.05,0
			c1.67-0.28,3.28-0.86,4.78-1.66c4.82-2.72,7.41-8.29,6.31-13.61c-0.14-0.75-0.37-1.48-0.7-2.14c-0.91-1.74-2.25-2.93-4.17-3.46
			c-1.46-0.42-2.96-0.49-4.46-0.2C9.05,3.9,5.69,6,3.6,9.88c-2.34,4.29-3.09,8.84-2.29,13.65c0.31,1.97,1.07,3.79,2.3,5.41
			c1.79,2.3,4.13,3.47,7.04,3.58c1.84,0.02,3.64-0.29,5.34-0.98c0.36-0.13,0.68-0.26,1.01-0.34c0.48-0.16,0.8,0.06,0.8,0.59
			c-0.05,0.67-0.11,1.33-0.2,2.01c-0.14,1.21-0.42,1.46-1.59,1.31c-1.76-0.22-3.49-0.01-5.65,0.44c-1.38,0.25-2.95,1.12-4.22,2.53
			c-0.44,0.5-0.82,1.08-1.11,1.67c-0.74,1.75-0.65,4.22,1.68,5.73c1.1,0.73,2.32,1.08,3.61,1.02c0.87,0,1.71-0.16,2.55-0.46
			c3.1-1.21,5.38-3.3,6.55-6.47c0.69-1.79,0.69-1.79,2.43-0.95c0.2,0.08,0.43,0.16,0.67,0.23c0.29,0.1,0.61-0.02,0.73-0.22
			c0.1-0.29,0.01-0.48-0.16-0.66C22.81,37.75,22.5,37.56,22.19,37.38z M17.01,38.09c-0.54,2.4-1.8,4.37-3.73,5.9
			c-2.15,1.71-4.53,0.38-5.35-1.16c-0.4-0.73-0.54-1.48-0.35-2.31c0.25-1.11,0.8-2.03,1.72-2.74c0.84-0.65,1.75-1.04,2.79-1.26
			c1.12-0.23,2.28-0.3,3.4-0.19c0.32,0.05,0.64,0.1,0.92,0.21c0.52,0.18,0.72,0.43,0.72,0.96L17.01,38.09z"/>
		<path class="st0" d="M150.8,26.63c-0.18-0.13-0.36-0.09-0.55-0.02c-0.3,0.17-0.54,0.45-0.74,0.69c-0.67,0.76-1.4,1.45-2.22,2
			c-0.21,0.16-0.45,0.26-0.69,0.37c-0.19,0.08-0.44-0.12-0.39-0.27c0.01-0.21,0.03-0.42,0.11-0.56c0.39-1.17,0.32-2.33,0-3.52
			c-0.16-0.51-0.28-1.01-0.43-1.56c-0.15-0.55-0.3-1.1-0.41-1.63c-0.25-1.13-0.14-2.2,0.39-3.24c0.15-0.26,0.32-0.55,0.39-0.83
			c0.11-0.27,0.06-0.54-0.14-0.76c-0.57-0.57-1.94-0.68-2.55-0.13c-0.27,0.23-0.48,0.55-0.74,0.86c-1.74,2.25-3.38,4.61-5.24,6.83
			c-0.07,0.08-0.14,0.17-0.19,0.26c-0.78,0.83-1.63,1.57-2.6,2.22c-0.42,0.25-0.85,0.5-1.37,0.61c-0.88,0.2-1.48-0.13-1.76-1.02
			c-0.19-0.54-0.2-1.12-0.12-1.69c0.13-0.89,0.45-1.66,0.9-2.45c0.98-1.77,1.95-3.54,2.9-5.36c0.19-0.34,0.38-0.68,0.5-1.03
			c0.11-0.35,0.01-0.67-0.32-0.9c-0.8-0.58-1.96-0.43-2.57,0.33l-0.34,0.47c-0.22,0.29-0.51,0.27-0.75-0.02
			c-0.1-0.1-0.2-0.25-0.26-0.38c-0.77-1.2-1.89-1.63-3.24-1.56c-0.76,0.02-1.5,0.2-2.23,0.52c-2.46,1.02-4.23,2.8-5.63,5.03
			c-0.35,0.56-0.62,1.14-0.83,1.78c-0.84,1.01-1.85,1.84-2.91,2.59c-0.41,0.27-0.86,0.5-1.37,0.59c-0.72,0.15-1.26-0.14-1.54-0.84
			c-0.15-0.39-0.17-0.81-0.15-1.26c0.06-0.74,0.21-1.5,0.48-2.21c0.3-0.95,0.68-1.89,0.98-2.84c0.31-0.99,0.8-1.87,1.53-2.64
			c1.13-1.29,2.19-2.59,3.12-3.94c0.61-0.82,1.15-1.66,1.56-2.55c0.29-0.62,0.47-1.3,0.49-2c0.01-1.24-0.91-2.07-2.1-2.08
			c-0.67,0.03-1.28,0.27-1.8,0.7c-0.65,0.53-1.16,1.2-1.56,1.93c-1.12,2.03-2.11,4.09-2.87,6.25c-0.66,1.84-1.32,3.64-1.95,5.48
			c-0.15,0.18-0.29,0.35-0.42,0.54c-0.86,1.28-1.82,2.43-3.02,3.43c-0.4,0.29-0.79,0.59-1.3,0.75c-0.85,0.29-1.48,0.03-1.86-0.83
			c-0.24-0.52-0.31-1.1-0.3-1.67c0.04-0.9,0.28-1.7,0.64-2.53c0.78-1.86,1.57-3.72,2.32-5.63c0.16-0.36,0.31-0.71,0.38-1.08
			c0.07-0.36-0.06-0.66-0.42-0.86c-0.86-0.49-2-0.22-2.52,0.6l-0.29,0.51c-0.19,0.31-0.48,0.33-0.75,0.06
			c-0.11-0.09-0.23-0.23-0.3-0.36c-0.89-1.11-2.05-1.42-3.39-1.21c-0.75,0.1-1.47,0.36-2.16,0.75c-2.34,1.27-3.91,3.23-5.07,5.59
			c-0.24,0.48-0.41,0.97-0.55,1.48c-0.73,1.23-1.66,2.29-2.83,3.16c-0.38,0.28-0.75,0.51-1.2,0.67c-0.62,0.23-1.11,0.05-1.5-0.49
			c-0.2-0.29-0.31-0.62-0.39-0.95c-0.19-0.74-0.17-1.52,0.01-2.25c0.14-0.65,0.32-1.26,0.5-1.91c1.33-4.11,2.7-8.21,4.03-12.31
			l0.4-1.22c0.27-1.14-0.08-1.56-1.23-1.59l-0.25-0.01c-0.66,0.07-1.16,0.38-1.38,1.03c-0.13,0.32-0.26,0.69-0.39,1.06l-2,6.14
			c-0.09,0.33-0.22,0.65-0.39,0.93c-0.09,0.16-0.33,0.24-0.49,0.07c-0.16-0.09-0.28-0.25-0.44-0.38c-0.68-0.75-1.53-1.1-2.51-1.09
			c-0.9-0.02-1.68,0.16-2.43,0.6c-3.24,1.84-5.11,4.63-5.86,8.25c-0.01,0.04-0.01,0.08-0.02,0.13c-0.69,1.21-1.57,2.27-2.65,3.22
			c-0.36,0.3-0.76,0.6-1.25,0.74c-0.57,0.18-0.98,0.03-1.37-0.41c-0.26-0.32-0.39-0.73-0.49-1.13c-0.23-0.77-0.17-1.59-0.03-2.38
			c0.28-1.53-0.09-2.91-1.03-4.11L66.1,12.5c-0.6-0.76-0.99-1.61-0.9-2.64s-0.37-1.38-1.39-1.31C63.73,8.6,63.65,8.6,63.56,8.6
			c-0.82,0.11-1.22,0.45-1.35,1.31c-0.11,0.58-0.09,1.15,0.13,1.68c0.35,0.85,0.21,1.63-0.13,2.46c-0.23,0.58-0.92,2.2-1.27,2.83
			c-0.06,0.19-0.18,0.41-0.2,0.61c-0.03,0.06-0.06,0.11-0.09,0.18c-0.62,1.41-1.36,2.71-2.37,3.91c-0.34,0.36-0.68,0.72-1.15,0.97
			c-0.78,0.44-1.45,0.29-1.98-0.48c-0.33-0.46-0.5-1.02-0.59-1.59c-0.12-0.89-0.03-1.72,0.18-2.61c0.44-1.97,0.89-3.94,1.28-5.95
			c0.09-0.38,0.18-0.76,0.19-1.13c0.01-0.37-0.18-0.64-0.56-0.77c-0.93-0.33-2,0.14-2.38,1.03l-0.2,0.55
			c-0.13,0.34-0.42,0.41-0.72,0.19c-0.13-0.07-0.26-0.18-0.36-0.3c-1.07-0.93-2.27-1.03-3.55-0.59c-0.72,0.23-1.38,0.62-2,1.12
			c-2.07,1.66-3.28,3.87-4,6.4c-0.15,0.53-0.25,1.06-0.29,1.62c-0.38,1.06-0.9,2.04-1.59,2.95c-0.45,0.57-0.95,1.1-1.59,1.5
			c-0.64,0.43-1.19,0.35-1.7-0.27c-0.4-0.43-0.6-0.94-0.73-1.5c-0.24-1-0.19-2-0.06-2.98c0.31-1.96,0.58-3.91,0.89-5.9
			c0.06-0.38,0.09-0.76,0.07-1.13c-0.03-0.45-0.32-0.7-0.7-0.76c-1.27-0.17-2.05,0.41-2.27,1.64c-0.18,0.98-0.31,2-0.44,2.97
			c-0.16,1.06-0.33,2.13-0.54,3.15c-0.39,1.97-1.24,3.68-2.58,5.18c-0.35,0.43-0.75,0.78-1.25,1.03c-0.7,0.32-1.34,0.17-1.81-0.46
			c-0.31-0.41-0.46-0.84-0.59-1.36c-0.18-0.88-0.16-1.8-0.02-2.73c0.27-1.99,0.57-3.99,0.87-6.03c0.03-0.34,0.1-0.68,0.09-1.01
			c0.02-0.67-0.33-1.03-0.98-0.96c-0.29,0-0.61,0.06-0.89,0.14c-0.52,0.12-0.88,0.47-1.01,0.99c-0.05,0.17-0.1,0.39-0.12,0.56
			c-0.35,2.25-0.66,4.46-0.97,6.71c-0.15,0.85-0.11,1.68-0.01,2.57c0.08,0.53,0.21,1.09,0.46,1.59c0.58,1.28,1.56,1.99,2.91,2.11
			c1.31,0.17,2.52-0.07,3.66-0.7c0.68-0.4,1.28-0.82,1.86-1.37c0.68-0.69,0.98-0.86,1.8-0.16c0.91,0.77,1.92,0.86,3.04,0.6
			c0.76-0.2,1.45-0.56,2.03-1.07c0.94-0.78,1.71-1.67,2.33-2.67c0.01,0.03,0.02,0.07,0.03,0.1c0.45,1.85,1.6,2.78,3.5,2.86
			c1.4,0.04,2.73-0.28,3.94-0.97c0.47-0.29,0.89-0.61,1.31-0.94c0.73-0.56,1.05-0.71,1.81,0c0.76,0.71,1.68,0.88,2.66,0.75
			c0.89-0.12,1.68-0.52,2.42-1.04c2.01-1.49,3.31-3.46,4.09-5.83c0.04-0.13,0.08-0.26,0.1-0.4c0.01-0.03,0.03-0.06,0.04-0.09
			c0.31-0.54,0.89-1.83,1.12-2.29c0.19-0.46,0.56-0.51,0.9-0.15c0.85,0.92,1.37,1.92,1.21,3.2c-0.1,0.62-0.17,1.23-0.15,1.85
			c0.01,0.37,0.07,0.78,0.12,1.14c0.48,2.32,2.32,3.49,4.6,2.93c1.1-0.28,1.98-0.88,2.78-1.6c0.54-0.53,1.03-1.1,1.47-1.71
			c0.5,2.27,2.32,3.58,4.68,3.32c1.15-0.14,2.23-0.52,3.22-1.15c0.29-0.16,0.54-0.36,0.87-0.51c0.37-0.2,0.62-0.19,0.94,0.15
			c0.08,0.08,0.2,0.21,0.28,0.33c0.87,1.17,2.09,1.45,3.49,1.23c0.66-0.11,1.32-0.42,1.9-0.73c0.99-0.59,1.84-1.3,2.57-2.11
			c0,0.05,0.01,0.11,0.02,0.16c0.12,1.9,1.08,3.02,2.94,3.43c1.37,0.29,2.74,0.21,4.05-0.25c0.51-0.2,0.99-0.45,1.46-0.69
			c0.82-0.42,1.16-0.51,1.78,0.33c0.62,0.84,1.5,1.16,2.48,1.21c0.9,0.04,1.75-0.21,2.56-0.59c1.27-0.63,2.34-1.46,3.24-2.45
			c-0.03,0.34-0.05,0.68-0.04,1.02c0.16,2.05,1.41,3.18,3.48,3.14c0.92-0.04,1.74-0.29,2.54-0.67c0.89-0.46,1.69-1.02,2.42-1.66
			c0,0.02,0,0.03,0,0.05c-0.08,1.9,0.76,3.12,2.56,3.72c1.33,0.43,2.7,0.49,4.06,0.17c0.53-0.15,1.03-0.34,1.53-0.53
			c0.86-0.33,1.2-0.39,1.74,0.51c0.53,0.9,1.37,1.31,2.34,1.46c0.89,0.13,1.76-0.03,2.61-0.32c0.61-0.23,1.19-0.5,1.73-0.82
			c0.01,0.12,0.04,0.25,0.1,0.39c0.35,0.9,0.98,1.57,1.78,2.08c0.66,0.39,1.39,0.67,2.11,0.81c1.24,0.29,2.52,0.41,3.76,0.36
			c3.08-0.12,5.32-1.68,7.16-3.99c0.18-0.21,0.33-0.46,0.36-0.71C151.01,26.94,150.97,26.76,150.8,26.63z M119.69,7.13l0.1-0.11
			c0.14-0.1,0.28-0.25,0.48-0.18c0.2,0.07,0.24,0.32,0.16,0.6l-0.2,0.55c-0.48,1.05-1.15,1.99-1.86,2.88
			c-0.1,0.11-0.24,0.21-0.39,0.15c-0.08-0.05-0.05-0.21-0.08-0.34C118.37,9.43,118.92,8.22,119.69,7.13z M49.02,22.68
			c-0.45,0.53-1.03,0.91-1.66,1.17c-0.76,0.27-1.36,0-1.71-0.71c-0.1-0.16-0.15-0.36-0.21-0.52l-0.22-1.13
			c-0.18-2.49,0.57-4.7,2-6.67c0.44-0.66,0.96-1.2,1.45-1.77c0.15-0.18,0.34-0.32,0.49-0.46c1.12-0.8,2-0.59,2.61,0.67
			c0.25,0.55,0.35,1.16,0.32,1.78C51.97,17.94,50.92,20.5,49.02,22.68z M84.65,13.59c-0.01,0.25-0.01,0.45-0.06,0.61
			c-0.57,3.06-2.1,5.48-4.61,7.26c-0.33,0.24-0.67,0.39-1.04,0.47c-0.58,0.11-1.06-0.07-1.38-0.57c-0.32-0.46-0.47-0.95-0.49-1.53
			c-0.07-0.53-0.01-1.07,0.12-1.55c0.6-2.77,1.97-5.03,4.22-6.74c0.38-0.28,0.75-0.51,1.2-0.67c0.62-0.23,1.11-0.05,1.5,0.49
			c0.24,0.29,0.35,0.66,0.47,1.04c0,0.12,0.03,0.29,0.03,0.45C84.66,13.1,84.65,13.39,84.65,13.59z M103.17,15.3
			c-0.62,2.82-2.11,5.16-4.37,6.97c-0.53,0.45-1.17,0.72-1.85,0.86c-0.79,0.13-1.34-0.24-1.55-1c-0.07-0.17-0.09-0.38-0.12-0.54
			l-0.02-1.15c0.27-2.48,1.39-4.52,3.15-6.21c0.54-0.57,1.16-1.01,1.74-1.49c0.18-0.15,0.39-0.25,0.57-0.36
			c1.25-0.59,2.08-0.22,2.45,1.13C103.32,14.08,103.31,14.7,103.17,15.3z M130.65,19.34c-0.92,2.74-2.64,4.91-5.08,6.47
			c-0.58,0.39-1.24,0.59-1.93,0.66c-0.8,0.05-1.3-0.38-1.44-1.16c-0.05-0.18-0.05-0.39-0.06-0.55l0.1-1.15
			c0.52-2.44,1.86-4.35,3.79-5.85c0.6-0.51,1.26-0.88,1.88-1.3c0.19-0.13,0.42-0.21,0.6-0.3c1.3-0.45,2.09-0.01,2.32,1.38
			C130.92,18.14,130.85,18.75,130.65,19.34z M142.47,29.42c-0.53,0.58-1.19,0.83-1.95,0.8c-1.35-0.02-2.45-0.52-3.26-1.63
			c-0.12-0.2-0.23-0.4-0.36-0.56c-0.13-0.17-0.25-0.28-0.36-0.36c1.17-0.83,2.16-1.87,3.01-3.11c0.1-0.15,0.18-0.3,0.24-0.47
			l1.52-1.97c0.14-0.22,0.32-0.42,0.56-0.53c0.15-0.09,0.35-0.03,0.4,0.1c0.12,0.2,0.19,0.39,0.26,0.62
			c0.25,0.83,0.46,1.61,0.67,2.42c0.15,0.55,0.29,1.14,0.35,1.7C143.72,27.59,143.32,28.63,142.47,29.42z"/>
	</g>
	<g>
		<g>
			<path class="st0" d="M28.49,7.93V4.49l-1.36,0.13v-1.1l3.99-0.37v1.1l-1.36,0.13v3.44L28.49,7.93z"/>
		</g>
		<g>
			<path class="st0" d="M32.32,7.58V3.03l1.26-0.12v1.7l1.62-0.15v-1.7l1.26-0.12v4.55L35.2,7.31V5.58l-1.62,0.15v1.73L32.32,7.58z"
				/>
		</g>
		<g>
			<path class="st0" d="M37.91,7.06V2.51l3.66-0.34v1.07l-2.41,0.22v0.69l2.18-0.2v0.99l-2.18,0.2v0.72l2.44-0.23v1.07L37.91,7.06z"
				/>
		</g>
	</g>
</g>
</svg>
