<?xml version="1.0" encoding="UTF-8"?>
<svg width="120px" height="8px" viewBox="0 0 120 8" version="1.1" xmlns="http://www.w3.org/2000/svg" xmlns:xlink="http://www.w3.org/1999/xlink">
    <!-- Generator: Sketch 51.3 (57544) - http://www.bohemiancoding.com/sketch -->
    <title>Fill 1</title>
    <desc>Created with Sketch.</desc>
    <defs></defs>
    <g id="Welcome" stroke="none" stroke-width="1" fill="none" fill-rule="evenodd">
        <g id="Desktop-HD" transform="translate(-659.000000, -184.000000)" fill="#FFFFFF">
            <g id="Group-2" transform="translate(409.000000, 178.000000)">
                <g id="Group" transform="translate(225.000000, 0.000000)">
                    <polygon id="Fill-1" transform="translate(85.000000, 9.949195) rotate(-180.000000) translate(-85.000000, -9.949195) " points="128.265656 6 122.889899 11.4781941 117.515759 6 112.143236 11.4781941 106.770713 6 101.396573 11.4781941 96.023511 6 90.6488316 11.4781941 85.2757697 6 79.903247 11.4781941 74.5301851 6 69.156584 11.4781941 63.7835221 6 58.4126168 11.4781941 53.0395549 6 47.6691886 11.4776549 42.2982833 6 42.297205 6 36.9273779 11.4776549 31.5564726 6 31.5553943 6 25 12.6891009 26.1871847 13.8983902 31.5559335 8.4207353 36.9279171 13.8983902 42.2982833 8.4207353 47.6691886 13.8983902 53.040094 8.42019616 58.4126168 13.8983902 63.7840612 8.42019616 69.156584 13.8983902 74.5301851 8.42019616 79.9027078 13.8983902 85.2757697 8.42019616 90.6488316 13.8983902 96.0229718 8.42019616 101.396573 13.8983902 106.770713 8.42019616 112.143236 13.8983902 117.515759 8.42019616 122.88936 13.8983902 128.265656 8.42019616 133.639257 13.8978511 139.017172 8.41965702 143.790711 13.282154 145 12.0949694 139.017172 6.00053914 133.639797 11.4781941"></polygon>
                </g>
            </g>
        </g>
    </g>
</svg>